<svg id="Layer_1_1_" enable-background="new 0 0 64 64" height="512" viewBox="0 0 64 64" width="512" xmlns="http://www.w3.org/2000/svg"><path d="m49 20h-34v-17c0-.552.448-1 1-1h32c.552 0 1 .448 1 1z" fill="#904c2a"/><path d="m49 20h-34l-2.876 7.031h39.752z" fill="#cce1f0"/><path d="m3 42h58v19h-58z" fill="#904c2a"/><path d="m61 61h-58v-19c6.359 8.902 16.231 14.649 27.112 15.782z" fill="#7a4124"/><path d="m41 61h2l2-7h-6z" fill="#fff2e2"/><path d="m23 61 2-7h-6l2 7z" fill="#fff2e2"/><path d="m51.453 27h-38.906c-1.554 0-2.968.9-3.625 2.308l-5.922 12.692h58l-5.923-12.692c-.657-1.408-2.07-2.308-3.624-2.308z" fill="#59aae2"/><path d="m46 54v-4c0-1.105-.895-2-2-2h-24c-1.105 0-2 .895-2 2v4z" fill="#fff9f0"/><path d="m18 51h28v3h-28z" fill="#e8e3da"/><path d="m18 14v7c0 .552.448 1 1 1h10c.552 0 1-.448 1-1v-7c0-.552-.448-1-1-1h-10c-.552 0-1 .448-1 1z" fill="#fff"/><path d="m34 14v7c0 .552.448 1 1 1h10c.552 0 1-.448 1-1v-7c0-.552-.448-1-1-1h-10c-.552 0-1 .448-1 1z" fill="#fff"/><g fill="#e8e3da"><path d="m29 21h-10c-.552 0-1-.448-1-1v1c0 .552.448 1 1 1h10c.552 0 1-.448 1-1v-1c0 .552-.448 1-1 1z"/><path d="m45 21h-10c-.552 0-1-.448-1-1v1c0 .552.448 1 1 1h10c.552 0 1-.448 1-1v-1c0 .552-.448 1-1 1z"/></g></svg>